<?xml version="1.0" standalone="no"?>
<!DOCTYPE svg PUBLIC "-//W3C//DTD SVG 1.0//EN" "http://www.w3.org/TR/2001/REC-SVG-20010904/DTD/svg10.dtd">
<svg xmlns="http://www.w3.org/2000/svg" xmlns:xlink="http://www.w3.org/1999/xlink" id="body_1" width="936" height="936">

<g transform="matrix(3.25 0 0 3.25 0 0)">
	<g transform="matrix(0.26666668 0 0 0.26666668 -203.25334 -0)">
        <path d="M873.9 614.7C 873.4 612 872.80005 609.3 872.80005 607.2L872.80005 607.2L868.50006 572.3C 868.00006 562.6 868.00006 556.2 868.00006 556.2L868.00006 556.2L868.00006 555.7L868.50006 555.2C 868.50006 555.2 878.2001 546.60004 887.80005 539.10004C 892.60004 535.30005 897.50006 531.60004 901.2001 528.9C 901.2001 528.9 905.00006 526.2 907.1001 525.10004L907.1001 525.10004L908.7001 506.30005C 908.7001 504.20004 909.2001 502.00006 909.2001 499.90005C 909.2001 495.60007 909.7001 491.30005 910.30005 486.50006L910.30005 486.50006L916.2001 452.70007C 916.7001 450.00006 917.30005 447.9001 917.80005 445.70007C 918.30005 444.60007 918.30005 443.00006 918.9 441.9001L918.9 441.9001L924.30005 422.6001C 925.9 416.2001 927.50006 411.9001 928.60004 409.2001L928.60004 409.2001L930.7 404.40012L933.9 405.50012L931.80005 410.3001C 930.7001 413.00012 929.10004 417.3001 927.50006 423.7001L927.50006 423.7001L922.10004 443.0001C 921.60004 444.1001 921.60004 445.7001 921.00006 446.80008C 920.50006 448.9001 919.9001 451.10007 919.4001 453.80008L919.4001 453.80008L913.50006 487.60007C 913.00006 491.90005 912.4001 496.70007 912.4001 500.50006C 912.4001 502.60007 911.9001 504.80005 911.9001 506.90005L911.9001 506.90005L910.3001 527.30005L909.20013 527.30005C 908.70013 527.80005 906.0001 529.4 903.3001 531.60004C 899.5001 534.30005 894.70013 538.00006 889.9001 541.80005C 881.9001 548.2001 873.3001 555.2001 871.1001 557.4C 871.1001 559.5 871.1001 564.9 871.6001 572.4L871.6001 572.4L875.9001 606.7C 876.4001 613.10004 878.00006 619 879.1001 624.9L879.1001 624.9L886.1001 655.5C 886.6001 656 888.2001 657.1 890.4001 658.2L890.4001 658.2L901.1001 664.60004L916.7001 673.7L921.50006 688.2C 923.60004 693 926.30005 699.5 929.00006 705.4C 930.60004 709.2 932.80005 712.9 934.4001 716.7C 937.6001 724.7 941.9001 732.3 946.2001 739.2C 947.30005 741.3 948.30005 743 949.4001 744.60004L949.4001 744.60004L956.9001 757.50006L955.8001 762.30005C 955.3001 764.4 954.70013 766.60004 954.70013 768.7001L954.70013 768.7001L953.60016 779.4001L963.3002 792.8001C 964.40015 794.4001 965.40015 796.0001 966.5002 797.6001C 968.60016 800.8001 970.8002 804.0001 973.5002 806.7001L973.5002 806.7001L986.9002 821.7001C 988.5002 823.30005 990.1002 825.50006 991.7002 827.1001C 994.4002 830.3001 997.1002 833.5001 1000.3002 836.2001L1000.3002 836.2001L1026.1002 860.30005L1026.6002 865.7001L1028.2002 875.4001L1030.9001 889.3001L1048.6001 903.20013L1068.5001 916.10016C 1070.6001 917.20013 1072.8002 918.8002 1074.9001 919.90015C 1080.3002 923.10016 1086.2002 926.90015 1092.1001 929.60016L1092.1001 929.60016L1097.5001 932.3002C 1112.5001 939.8002 1126.5001 947.3002 1138.3002 951.10016L1138.3002 951.10016L1159.8002 959.10016C 1160.9001 958.60016 1162.5001 958.0002 1164.6002 957.0002L1164.6002 957.0002L1177.5002 951.10016C 1186.6002 946.8002 1195.2002 942.5002 1195.2002 942.5002L1195.2002 942.5002L1195.7002 942.0002L1208.6002 945.8002C 1213.4003 946.90015 1219.3002 947.90015 1225.8002 949.0002C 1229.6002 949.5002 1232.8002 950.10016 1236.5001 951.10016C 1238.1001 951.60016 1240.3002 951.60016 1241.9001 952.20013C 1245.1001 952.70013 1248.3002 953.3001 1251.6001 953.8001L1251.6001 953.8001L1277.4001 955.9001L1290.8002 945.2001L1304.2002 932.30005L1315.5002 932.30005C 1317.6002 932.30005 1319.8003 932.30005 1322.5002 932.30005C 1327.3003 932.30005 1333.2002 932.30005 1338.6002 931.2001L1338.6002 931.2001L1371.9003 926.9001L1372.4003 930.1001L1339.1002 934.4001C 1333.7002 935.50006 1327.8002 935.50006 1322.5002 935.50006C 1319.8003 935.50006 1317.7002 935.50006 1315.5002 935.50006L1315.5002 935.50006L1305.3003 935.50006L1292.4003 947.80005L1279.0002 959.60004L1252.2002 957.50006C 1249.0002 957.00006 1245.8002 956.4001 1242.5002 955.9001C 1240.9003 955.4001 1238.7002 955.4001 1237.1002 954.8001C 1233.3002 954.3001 1229.6002 953.70013 1226.4003 952.70013C 1220.0002 951.60016 1214.1002 950.60016 1209.2003 949.5001L1209.2003 949.5001L1197.4003 946.3001C 1195.3003 947.4001 1187.7003 951.1001 1180.2003 954.3001L1180.2003 954.3001L1167.3003 960.20013C 1163.5002 961.8001 1161.4003 962.3001 1161.4003 962.3001L1161.4003 962.3001L1160.9003 962.3001L1138.9003 953.70013C 1127.1002 949.90015 1112.6002 942.40015 1097.6002 934.90015L1097.6002 934.90015L1092.2002 932.20013C 1085.8002 929.5001 1080.4001 925.8001 1074.5002 922.0001C 1072.4003 920.90015 1070.2002 919.3001 1068.1002 918.20013L1068.1002 918.20013L1047.7002 905.3001L1028.4001 890.8001L1023.60016 865.6001L1023.10016 861.3001L998.40015 838.20013C 995.20013 835.5001 992.5001 831.8001 989.8002 828.5001C 988.2002 826.90015 986.60016 824.70013 985.0002 823.1001L985.0002 823.1001L971.60016 808.1001C 968.90015 804.9001 966.20013 801.7001 964.10016 798.4001C 963.0002 796.8001 962.0002 795.2001 960.90015 794.1001L960.90015 794.1001L950.60016 779.9001L952.20013 768.1001C 952.20013 766.0001 952.70013 763.3001 953.3001 761.1001L953.3001 761.1001L953.8001 757.3001L946.8001 745.5001C 945.70013 743.90015 944.70013 742.3001 943.6001 740.1001C 939.8001 733.1001 935.0001 725.6001 931.8001 717.0001C 930.20013 713.20013 928.6001 709.5001 926.4001 705.70013C 923.2001 699.3001 920.50006 693.40015 918.9001 688.0001L918.9001 688.0001L914.6001 675.3001L900.1001 666.70013L889.4001 660.3001C 886.2001 658.70013 884.6001 657.1001 884.6001 657.1001L884.6001 657.1001L884.1001 656.6001L876.6001 624.4001C 875.5 622.2 874.4 618.4 873.9 614.7z" stroke="none" fill="#3DC4D0" fill-rule="nonzero" />
        <path d="M1371.7 926.6L1410.2999 918C 1414.6 916.9 1418.8999 915.3 1423.7 913.7C 1426.3999 912.60004 1429.1 911.60004 1431.7 911C 1434.3999 909.9 1437.1 909.4 1439.7 908.3C 1444.5 906.7 1448.7999 905.6 1453.1 903.5L1453.1 903.5L1484.2 889.6L1489.6 886.39996L1490.1 886.89996C 1490.1 886.89996 1500.7999 891.69995 1512.6 896.6C 1522.2999 900.39996 1531.9 904.1 1535.7 905.19995L1535.7 905.19995L1538.8999 903.6C 1540.4999 902.5 1542.0999 901.5 1544.2999 899.8C 1545.3999 898.7 1546.9999 898.2 1548.1 897.1C 1550.7999 895 1553.5 893.3 1556.7 890.69995C 1562.6 886.39996 1569.6 881.6 1576 876.19995L1576 876.19995L1602.3 853.1C 1605 851 1606.6001 849.3 1608.2001 847.19995C 1609.3 846.1 1609.8 845.6 1610.3 845.1L1610.3 845.1L1613 842.39996L1613.5 825.19995L1613.5 807.49994L1614 806.99994C 1614 806.99994 1615.1 805.89996 1616.1 804.2999L1616.1 804.2999L1622.5 795.69995C 1624.1 793.6 1626.3 790.89996 1628.4 787.69995C 1632.7001 782.2999 1637 776.39996 1641.3 770.49994L1641.3 770.49994L1657.9 743.69995C 1659.5 741.6 1660.6 739.39996 1661.7001 737.2999C 1662.2001 736.19995 1662.8 735.19995 1662.8 734.5999L1662.8 734.5999L1664.9 730.2999L1676.2001 725.99994L1686.4 721.69995L1688 717.89996C 1688.5 717.39996 1688.5 716.3 1689.1 715.8C 1690.2 713.7 1691.7999 710.39996 1692.9 706.7C 1694 703.5 1695.6 699.7 1697.2001 696C 1699.9 688.5 1703.6001 679.9 1706.3 671.3L1706.3 671.3L1716.5 635.39996C 1717.6 632.19995 1717.6 629.49994 1718.1 626.8C 1718.1 625.7 1718.6 624.1 1718.6 623L1718.6 623L1719.7 617.6L1731.5 607.89996L1742.8 598.19995C 1742.8 597.1 1743.3 595.49994 1743.9 592.7999L1743.9 592.7999L1747.1 551.99994C 1747.1 546.5999 1747.1 540.69995 1747.1 534.2999C 1747.1 531.0999 1747.1 527.8999 1747.1 524.5999C 1747.1 509.5999 1745.5 494.5999 1743.9 482.79993C 1743.4 479.5999 1743.4 476.89993 1742.8 474.19992C 1741.7001 462.89993 1740.1001 454.89993 1739 452.19992C 1737.4 450.5999 1730.4 445.19992 1723.4 440.39993C 1717 435.59995 1710 430.69992 1708.4 429.69992L1708.4 429.69992L1707.3 429.69992L1706.8 428.0999C 1706.8 426.9999 1705.7001 422.19992 1703 415.79993L1703 415.79993L1693.9 388.39993C 1692.8 384.09995 1690.7001 380.39993 1689.1 376.59995L1689.1 376.59995L1677.2999 351.39993C 1674.6 350.29993 1668.2 347.59995 1660.7 345.49994L1660.7 345.49994L1639.7999 339.09995L1641.8999 337.99994C 1637.5999 330.49994 1608.5999 287.69995 1604.8999 285.49994L1604.8999 285.49994L1605.3999 284.39993L1604.2999 282.79993L1606.3999 282.79993C 1609.5999 284.39993 1641.2999 329.49994 1645.5999 337.99994L1645.5999 337.99994L1662.1998 343.39993C 1669.6998 345.49994 1676.6998 348.79993 1678.7998 349.79993L1678.7998 349.79993L1679.2998 349.79993L1691.5999 377.19992C 1693.1998 380.9999 1695.3999 385.19992 1696.3999 389.4999L1696.3999 389.4999L1705.4999 416.2999C 1707.5999 422.1999 1708.6998 426.4999 1709.2999 428.09988C 1711.3999 429.1999 1717.8999 433.99988 1724.8999 438.7999C 1732.8999 444.6999 1740.9999 450.59988 1740.9999 451.09988L1740.9999 451.09988L1742.0999 452.1999L1741.5999 452.6999C 1742.0999 455.8999 1744.2998 463.99988 1745.3999 475.1999C 1745.8999 477.8999 1745.8999 480.59988 1746.4999 483.7999C 1748.0999 496.09988 1750.2999 511.1999 1749.6998 526.1999C 1749.6998 529.3999 1749.6998 532.5999 1749.6998 535.29987C 1749.6998 541.6999 1750.1998 547.59985 1749.6998 552.9999L1749.6998 552.9999L1746.4999 593.79987C 1745.9999 600.1999 1745.3999 601.29987 1744.8999 601.29987L1744.8999 601.29987L1733.5999 610.9999L1722.2998 620.09985L1721.7998 624.39984C 1721.7998 625.4998 1721.2998 626.4998 1721.2998 627.59985C 1720.7998 630.29987 1720.1998 632.9999 1719.6998 636.6998L1719.6998 636.6998L1709.4999 673.1998C 1706.2999 681.7998 1703.0999 690.39984 1699.7999 697.89984C 1698.2 701.6998 1697.1 705.39984 1695.4999 708.59985C 1694.3999 712.39984 1692.7999 715.59985 1691.1998 717.6998C 1690.6998 718.1998 1690.6998 719.2998 1690.0999 719.7998L1690.0999 719.7998L1687.3999 724.5998L1666.4999 732.5998L1664.8999 735.7998C 1664.3999 736.2998 1663.7999 737.3998 1663.7999 738.4998C 1662.7 740.5998 1661.7 742.7998 1659.9999 745.4998L1659.9999 745.4998L1643.3999 772.2998C 1639.0999 778.6998 1634.2999 784.5998 1630.4999 789.9998C 1628.3999 792.6998 1626.1998 795.39984 1624.5999 797.9998L1624.5999 797.9998L1618.1998 805.9998C 1617.0999 807.0998 1616.5999 808.0998 1616.0999 808.6998L1616.0999 808.6998L1616.0999 825.2998L1615.5999 843.4998L1612.3999 847.2998C 1611.8999 847.7998 1610.7999 848.8998 1610.2999 849.3998C 1608.7 850.99976 1606.4999 853.19977 1604.3999 855.2998L1604.3999 855.2998L1578.0999 878.3998C 1571.6998 883.7998 1564.6998 888.5998 1558.1998 892.8998C 1554.9999 894.99976 1552.2998 897.19977 1549.5999 899.2998C 1547.9999 900.3998 1546.8999 901.3998 1545.7998 901.9998C 1543.6998 903.5998 1541.4998 904.6998 1540.3998 905.7998L1540.3998 905.7998L1536.0997 908.4998L1535.5997 908.4998C 1532.3998 907.39984 1522.1997 903.6998 1511.9998 899.39984C 1502.2998 895.59985 1493.1997 891.39984 1490.4998 890.29987L1490.4998 890.29987L1486.6997 892.39984L1455.5997 906.29987C 1451.2997 908.39984 1446.4998 910.09985 1441.6997 911.6999C 1438.9998 912.79987 1436.2997 913.29987 1433.6997 914.3999C 1430.9998 915.4999 1428.2997 916.4999 1425.0997 917.0999C 1420.7997 918.6999 1415.9998 920.2999 1411.6997 921.3999L1411.6997 921.3999L1373.0997 929.9999L1371.7 926.6zM847.6 619C 841.19995 583.1 840.1 552 840.1 529.5C 841.69995 487.1 847.6 449.1 855.69995 420.7C 857.2999 415.90002 858.39996 411.6 859.49994 407.80002C 861.0999 400.80002 862.69995 395.50003 864.2999 391.2L864.2999 391.2L868.0999 381L874.49994 383.7L870.69995 394C 869.6 397.8 867.99994 403.7 865.89996 410.1C 864.8 413.9 863.8 418.7 862.1 423C 854.1 450.4 848.69995 488.4 846.5 529.7C 846 564.60004 849.7 618.7 869 680.30005C 886.7 735.50006 915.7 788.00006 953.1 832.50006C 990.6 877.10004 1037.2 915.00006 1088.7 941.80005C 1136.3999 967.00006 1186.2 983.60004 1232.8999 989.50006C 1241.4999 991.60004 1250.0999 992.2001 1258.0999 992.7001L1258.0999 992.7001L1265.0999 993.2001C 1268.8999 993.2001 1272.5999 993.7001 1275.7998 994.30005C 1282.1998 994.80005 1288.0999 995.4 1293.4998 995.4L1293.4998 995.4L1319.2998 994.9C 1321.9998 994.9 1324.6998 994.9 1326.7998 994.9C 1331.5999 994.9 1336.4998 994.9 1340.1998 993.80005L1340.1998 993.80005L1381.4999 988.4L1382.5999 995.4L1341.2998 1000.80005C 1336.9998 1001.9 1332.1998 1001.9 1326.7998 1001.9C 1324.0999 1001.9 1321.9998 1001.9 1319.2998 1001.9L1319.2998 1001.9L1293.4998 1002.4C 1287.5997 1002.4 1281.1997 1001.9 1274.6997 1001.30005C 1270.8997 1000.80005 1267.6997 1000.80005 1263.9998 1000.2001L1263.9998 1000.2001L1256.9998 999.7001C 1248.3998 999.2001 1239.7998 998.6001 1231.1997 996.50006C 1183.4998 990.10004 1133.0997 973.4001 1084.7997 947.7001C 1032.8997 919.80005 985.0997 881.80005 946.9997 836.7001C 908.8997 791.6001 878.9997 738.1001 861.2997 681.80005C 856.1 660.2 850.8 638.7 847.6 619z" stroke="none" fill="#44D9E6" fill-rule="nonzero" />
        <path d="M868 381.1L879.8 351.1L899.7 311.9C 901.3 309.19998 902.9 307.1 904.5 304.4L904.5 304.4L922.7 275.4C 926.5 270 930.7 264.69998 935 258.8C 937.7 255.59999 939.8 252.4 942.5 249.09999C 965.6 220.7 1003.6 180 1057.8 146.19998C 1107.1001 115.09998 1164.5 92.59998 1222.8 82.499985C 1281.2001 72.29999 1342.9 73.39999 1399.6001 85.69998C 1461.7001 99.09998 1512.2001 124.29998 1543.3 142.99998C 1547.1001 145.09999 1550.3 147.29999 1553.5 149.39998C 1559.4 153.19998 1565.3 156.89998 1570.7 160.69998L1570.7 160.69998L1598.1 181.59998C 1600.2 183.19998 1602.9 185.39998 1605.1 186.99997L1605.1 186.99997L1638.9 218.69997L1658.8 241.19997L1653.4 245.99997L1632.5 221.89996L1600.8 192.39996C 1598.7001 190.79996 1596.5 189.19997 1594.4 187.59996L1594.4 187.59996L1567.6 166.69997C 1562.2 162.89996 1556.9 159.69997 1551 155.99997C 1547.8 153.89996 1544 151.69997 1540.8 149.59998C 1510.2001 131.39998 1461 106.099976 1399.3 93.39998C 1343 81.099976 1282.4 79.99998 1225.1001 90.19998C 1167.3 100.39998 1110.9001 122.39998 1062.7001 152.89998C 1009.7001 186.19998 971.6001 226.29999 949.1001 254.19998C 946.4001 257.4 944.3001 260.59998 941.6001 263.9C 937.3001 269.3 933.0001 274.6 929.3001 280L929.3001 280L911.1001 309C 909.5001 311.1 907.9001 313.8 906.8001 316L906.8001 316L886.4001 356.2L875.7001 384.1L868 381.1z" stroke="none" fill="#44D9E6" fill-rule="nonzero" />
        <path d="M1382.4 988.8L1422.6 979.7C 1426.9 979.2 1431.2 977.60004 1436 975.9C 1438.1 974.80005 1440.8 974.30005 1443.5 973.2L1443.5 973.2L1467.6 965.2C 1473 963.60004 1478.2999 960.9 1484.2 958.2C 1487.3999 956.60004 1490.6 955 1494.3999 953.4L1494.3999 953.4L1500.7999 950.7C 1508.2999 947.5 1515.7999 943.7 1522.7999 939.4C 1565.2 917.4 1606.3999 884.80005 1642.2999 844.5C 1681.4999 801 1712.4999 749.6 1731.7999 695C 1751.7 640.4 1761.2999 580.8 1758.6 523C 1755.9 458.2 1740.4 406.1 1728 374C 1711.9 335.9 1694.2 302.2 1677.1 279.1C 1674.4 275.30002 1671.7 271.6 1669.1 267.80002C 1665.2999 262.40002 1661.6 257.6 1658.9 254.40002L1658.9 254.40002L1651.9 246.40002L1657.3 241.60002L1664.3 249.60002C 1667 253.40002 1670.7001 258.2 1674.5 263.50003C 1676.6 266.70004 1679.3 270.50003 1682.5 274.20004C 1699.7 297.80005 1718.4 332.00003 1734.4 370.70004C 1747.3 404.00003 1762.8 456.40002 1765.5 522.30005C 1768.2 581.2001 1758.5 641.80005 1738.1 697.00006C 1718.2 752.2001 1686.7 804.7001 1647 848.6001C 1610.5 889.4001 1568.8 922.5001 1525.8 944.5001C 1518.3 949.3001 1510.8 952.5001 1502.7001 956.3001L1502.7001 956.3001L1496.3 959.0001C 1493.1001 960.6001 1489.3 962.20013 1486.6001 963.3001C 1480.7001 966.0001 1475.3 968.70013 1469.4001 970.8001L1469.4001 970.8001L1445.3002 978.8001C 1442.6002 979.3001 1440.5001 980.4001 1438.3002 981.5001C 1433.5001 983.1001 1428.6002 984.70013 1424.4001 985.8001L1424.4001 985.8001L1384.2002 994.9001L1382.4 988.8z" stroke="none" fill="#44D9E6" fill-rule="nonzero" />
        <path d="M1359.3 955L1358.8 950.7L1376 948.5L1376.5 952.8L1359.3 955" stroke="none" fill="#44D9E6" fill-rule="nonzero" />
        <path d="M1294.1 959.3L1294.1 955C 1295.2 955 1295.7 955 1296.7999 955L1296.7999 955L1318.2999 954.5L1318.2999 958.8L1296.7999 959.3C 1296.2 959.3 1295.2 959.3 1294.1 959.3zM1335.2 958.2L1334.7 953.9L1342.7 952.80005L1343.2 957.10004L1335.2 958.2zM895.3 636.7L899.6 635.60004L900.69995 639.9C 901.19995 641 901.19995 642.60004 901.7999 644.7C 902.2999 647.9 903.3999 652.2 904.99994 656.5C 905.49994 657.6 905.49994 658.1 906.0999 659.2L906.0999 659.2L901.7999 660.8C 901.2999 659.7 901.2999 659.2 900.69995 658.1C 899.1 653.3 897.99994 649 897.49994 645.8C 896.99994 644.2 896.99994 642.6 896.39996 641.5L896.39996 641.5L895.3 636.7zM906.6 676.3L910.89996 674.7C 911.99994 677.4 912.49994 679.5 913.6 682.2L913.6 682.2L909.3 683.8C 908.2 681.1 907.7 678.4 906.6 676.3zM915.1 699.3L918.89996 697.7C 920.99994 703.10004 923.69995 708.4 925.89996 713.3C 927.99994 717.6 930.19995 722.39996 932.3 727.2L932.3 727.2L928.5 729.3C 926.4 724.5 923.7 720.2 922.1 715.39996C 919.4 710.1 917.2 704.7 915.1 699.3zM934.4 739.5L938.2 737.4C 942 744.4 946.2 751.30005 950.5 758.30005L950.5 758.30005L946.7 760.4C 942.4 754 938.1 747 934.4 739.5zM955.8 774.9L959.6 772.80005C 961.19995 774.9 962.8 777.10004 964.39996 779.2001L964.39996 779.2001L960.6 781.9001C 959.1 779.2 957.4 777 955.8 774.9zM970.3 794.7L973.5 792C 979.9 800.6 986.9 809.2 993.9 817.2L993.9 817.2L990.7 819.9C 983.7 811.9 976.8 803.3 970.3 794.7zM999.3 829.1L1002.5 825.89996C 1007.9 831.8 1013.8 837.69995 1019.7 843.1L1019.7 843.1L1017 846.3C 1010.5 840.8 1004.7 834.9 999.3 829.1zM1028.7 856.9L1031.3999 853.7C 1032.9999 855.3 1035.2 856.9 1036.7999 858.5L1036.7999 858.5L1037.2999 859L1034.6 862.2L1034.1 861.7C 1032.5 860.1 1030.9 858.5 1028.7 856.9zM1048 872.4L1050.7 869.2C 1059.7999 876.2 1067.8999 882.60004 1077 888L1077 888L1074.9 891.8C 1065.7 885.9 1057.1 879.4 1048 872.4zM1085 897.7L1087.1 893.9L1097.7999 900.9L1107.9999 905.7L1105.8999 909.5L1093.5999 903.1L1085 897.7zM1120.9 917.5L1123 913.7C 1125.1 914.8 1127.8 916.4 1130 917.5L1130 917.5L1128.4 921.3C 1125.7 919.7 1123.6 918.6 1120.9 917.5zM1143.4 927.2L1145 923.4C 1147.7 924.5 1150.4 925.5 1153 926.60004C 1155.7 927.7 1158.9 928.7 1161.6 929.80005L1161.6 929.80005L1171.7999 933.60004C 1172.8999 934.10004 1174.4999 934.7 1176.1 934.7L1176.1 934.7L1175 939C 1173.4 938.5 1172.3 937.9 1170.7 937.9L1170.7 937.9L1160.5 934.10004C 1157.8 933.00006 1155.1 932.00006 1151.9 930.9C 1148.8 929.3 1146.1 928.2 1143.4 927.2zM1185.8 942.1L1186.9 937.8L1199.8 941.6C 1203 942.69995 1206.2001 943.69995 1210.5 944.3L1210.5 944.3L1209.4 948.6C 1205.6 947.5 1201.9 947 1198.7001 945.89996L1198.7001 945.89996L1185.8 942.1zM1225.4 951.7L1225.9 947.4C 1228.6 947.9 1230.7001 948.5 1232.9 948.5L1232.9 948.5L1234 948.5L1233.5 952.8L1232.4 952.8C 1230.2 952.3 1228.1 952.3 1225.4 951.7zM1249.5 956L1250 951.7C 1253.8 952.2 1256.4 952.2 1259.1 952.8L1259.1 952.8L1282.2 954.39996L1281.7 958.69995L1258.6 957.1C 1256.5 956.6 1253.3 956.6 1249.5 956z" stroke="none" fill="#44D9E6" fill-rule="nonzero" />
        <path d="M889.4 612.5L893.7 611.5L897.5 628.1L893.7 629.2L889.4 612.5" stroke="none" fill="#44D9E6" fill-rule="nonzero" />
        <path d="M889.4 612.5L887.3 595.4L891.6 594.8L893.7 612L889.4 612.5" stroke="none" fill="#44D9E6" fill-rule="nonzero" />
        <path d="M885.7 579.3L884.60004 571.3L888.9 570.8L890 578.8L885.7 579.3zM884 554.6L883.5 533.1C 883.5 532 883.5 531 883.5 530.39996L883.5 530.39996L887.8 530.39996C 887.8 531.49994 887.8 531.99994 887.8 533.1L887.8 533.1L888.3 554.6L884 554.6zM884 518.8L885.6 495.69998C 885.6 492.99997 886.1 489.8 886.69995 485.99997L886.69995 485.99997L890.99994 486.49997C 890.49994 490.29996 890.49994 492.89996 889.89996 495.59998L889.89996 495.59998L888.3 518.69995L884 518.8zM889.4 470L889.4 468.9C 889.9 466.8 890.5 464.1 890.5 461.9L890.5 461.9L894.8 462.4C 894.3 465.1 893.7 467.19998 893.7 469.4L893.7 469.4L893.7 470.5L889.4 470zM893.7 445.9C 894.8 442.1 895.3 438.4 896.4 435.19998L896.4 435.19998L900.2 422.3L904.5 423.4L900.7 436.3C 899.60004 439.5 898.60004 442.69998 898 447L898 447L893.7 445.9zM903.4 410.6C 903.9 409 904.5 407.9 904.5 406.30002L904.5 406.30002L908.3 396.1C 909.39996 393.4 910.39996 390.7 911.5 387.5C 912.6 384.8 913.6 382.1 914.7 379.5L914.7 379.5L918.5 381.1C 917.4 383.80002 916.4 386.5 915.3 389.1C 914.2 391.80002 913.2 395 912.1 397.7L912.1 397.7L908.89996 407.40002C 908.39996 408.50003 907.8 410.10004 907.8 411.7L907.8 411.7L903.4 410.6zM921.5 364.4C 922.6 361.69998 923.6 359.6 925.3 356.9L925.3 356.9L929.1 359C 928 361.1 926.39996 363.8 925.3 366L925.3 366L921.5 364.4zM932.2 342.5L938.60004 330.2L944.00006 321.1L947.80005 323.2L940.80005 333.90002L936 344L932.2 342.5zM951 310.9C 956.4 301.8 962.8 293.19998 969.8 284.1L969.8 284.1L973 286.80002C 966 295.90002 959.6 304.00003 954.2 313.1L954.2 313.1L951 310.9zM980 271.2L980.5 270.7C 982.1 268.6 983.7 266.90002 985.3 264.80002L985.3 264.80002L988.5 267.50003C 986.9 269.10004 985.3 271.30002 983.7 272.90002L983.7 272.90002L983.7 274.00003L980 271.2zM996.1 252.9C 1001.5 247 1007.39996 241.09999 1013.3 235.2L1013.3 235.2L1016.5 238.4C 1010.6 243.79999 1004.7 249.7 999.3 255.59999L999.3 255.59999L996.1 252.9zM1022.8 227.3C 1030.8 220.3 1039.4 213.40001 1048 206.40001L1048 206.40001L1050.7 209.6C 1042.1 216 1033.5 223 1025.5 230L1025.5 230L1022.8 227.3zM1060.9 196.7C 1063 195.09999 1065.2001 193.5 1067.9 191.9L1067.9 191.9L1070.6 195.7C 1068.5 197.3 1066.2999 198.9 1064.2 200.5L1064.2 200.5L1060.9 196.7zM1081.3 183.3C 1088.3 179 1095.2001 174.7 1102.8 171L1102.8 171L1104.9 174.8C 1097.9 178.6 1091 182.8 1084 187.1L1084 187.1L1081.3 183.3zM1113.4 165C 1118.2001 162.9 1122.5 160.2 1127.3 158.6C 1132.1001 155.90001 1137.5 153.8 1143.4 151.6L1143.4 151.6L1145 155.40001C 1139.6 157.50002 1134.3 160.20001 1129.4 162.40001C 1125.1 164.50002 1120.3 166.70001 1115.5 168.8L1115.5 168.8L1113.4 165zM1158.4 145.3C 1161.1 144.2 1163.8 143.7 1165.9 142.6L1165.9 142.6L1167.5 146.90001C 1164.8 148.00002 1162.7 148.50002 1160 149.6L1160 149.6L1158.4 145.3zM1181.5 137.8C 1182.6 137.3 1183.6 137.3 1184.2 136.7C 1189 135.09999 1193.2999 134 1196.5 133.5C 1198.1 133 1199.7 133 1200.8 132.4L1200.8 132.4L1205.1001 131.29999L1206.2001 135.59999L1201.9 136.7C 1200.8 137.2 1199.2001 137.2 1197.1 137.8C 1193.9 138.3 1189.6 139.40001 1185.2999 141C 1184.2 141.5 1183.7 141.5 1182.6 142.1L1182.6 142.1L1181.5 137.8z" stroke="none" fill="#44D9E6" fill-rule="nonzero" />
        <path d="M1213.1 129.7L1229.7 126L1230.8 130.3L1214.1 134L1213.1 129.7" stroke="none" fill="#44D9E6" fill-rule="nonzero" />
        <path d="M1230.8 130.3L1230.2 126L1246.9 123.8L1247.4 128.1L1230.8 130.3" stroke="none" fill="#44D9E6" fill-rule="nonzero" />
        <path d="M1263.5 126L1263 121.7L1271 120.6L1271.5 124.9L1263.5 126zM1287.6 124.4L1287.6 120.1L1309.1 119.6C 1310.2 119.6 1311.2 119.6 1311.7999 119.6L1311.7999 119.6L1311.7999 123.9C 1310.7 123.9 1310.2 123.9 1309.1 123.9L1309.1 123.9L1287.6 124.4zM1323.4 124.4L1323.9 120.1L1347 121.7C 1349.7 121.7 1352.9 122.2 1356.7 122.799995L1356.7 122.799995L1356.2 127.1C 1352.3999 126.6 1349.7999 126.6 1347.1 126L1347.1 126L1323.4 124.4zM1371.7 129.7L1372.2 125.399994L1373.2999 125.399994C 1375.3999 125.899994 1378.1 126.49999 1380.2999 126.49999L1380.2999 126.49999L1379.7999 130.79999C 1377.1 130.29999 1374.9999 129.69998 1372.7999 129.69998L1372.7999 129.69998L1371.7 129.7zM1395.8 134L1396.9 129.7C 1400.7001 130.8 1404.4 131.3 1407.6 132.4L1407.6 132.4L1420.5 136.2L1419.4 140.5L1406.5 136.7C 1402.7 136.2 1399.6 135.1 1395.8 134zM1431.1 143.7L1432.2 139.4C 1433.7999 139.9 1434.8999 140.5 1436.5 140.5L1436.5 140.5L1446.7 144.3C 1449.3999 145.40001 1452.1 146.40001 1455.2999 147.5C 1457.9999 148.6 1460.7 149.6 1463.2999 150.7L1463.2999 150.7L1461.7 154.5C 1459 153.4 1456.2999 152.4 1453.7 151.3C 1451 150.2 1447.7999 149.2 1445.1 148.1L1445.1 148.1L1434.9 144.3C 1433.8 144.8 1432.2 144.2 1431.1 143.7zM1476.2 161.3L1477.7999 157.5C 1480.4999 158.6 1482.6 159.6 1485.2999 161.3L1485.2999 161.3L1483.2 165.1C 1481 164 1478.3 162.4 1476.2 161.3zM1497.7 172.6L1499.7999 168.8L1512.1 175.2L1521.2 180.59999L1519.1 184.4L1508.4 177.4L1497.7 172.6zM1529.2 190.8L1531.2999 187C 1540.3999 192.4 1548.9999 198.8 1558.1 205.8L1558.1 205.8L1555.4 209C 1546.4 202.6 1538.3 196.2 1529.2 190.8zM1568.4 219.8L1571.1 216.6L1571.6 217.1C 1573.7 218.70001 1575.4 220.3 1577.5 221.90001L1577.5 221.90001L1574.8 225.1C 1573.2001 223.5 1571 221.90001 1569.4 220.3L1569.4 220.3L1568.4 219.8zM1586.6 235.9L1589.2999 232.7C 1595.2 238.09999 1601.1 244 1606.4999 249.9L1606.4999 249.9L1603.2999 253.09999C 1598.3 246.5 1592.5 241.2 1586.6 235.9zM1612.3 261.5L1615.5 258.8C 1622.5 266.8 1629.4 275.4 1636.4 284L1636.4 284L1633.2001 286.7C 1626.2 278.2 1619.2 269.6 1612.3 261.5zM1642.3 299.6L1646.1001 296.9C 1647.7001 299 1649.3 301.19998 1650.9001 303.9L1650.9001 303.9L1647.1001 306.6C 1645.5 304.4 1643.9 301.8 1642.3 299.6zM1655.7 320L1659.5 317.9C 1663.8 324.9 1668.1 331.8 1671.8 339.4L1671.8 339.4L1668 341.5C 1664.3 333.9 1660 327 1655.7 320zM1673.4 351.6L1677.2001 349.5C 1679.3 354.3 1682.0001 358.6 1683.6001 363.4C 1686.3 368.19998 1688.4001 373.6 1690.6001 379.5L1690.6001 379.5L1686.8 381.1C 1684.7001 375.7 1682 370.4 1679.8 365.5C 1678.3 360.7 1676.1 356.4 1673.4 351.6zM1693.3 396.1L1697.6001 394.5C 1698.7001 397.2 1699.2001 399.9 1700.3 402L1700.3 402L1696 403.6C 1694.9 401.4 1693.8 398.8 1693.3 396.1zM1700.7 419.2L1705 417.6C 1705.5 418.7 1705.5 419.2 1706.1 420.30002C 1707.7 425.1 1708.7999 429.40002 1709.2999 432.6C 1709.7999 434.2 1709.7999 435.80002 1710.3999 436.9L1710.3999 436.9L1711.4999 441.19998L1707.1998 442.3L1706.0999 438C 1705.5999 436.9 1705.5999 435.3 1704.9999 433.2C 1704.4999 430 1703.3999 425.7 1701.7999 421.40002C 1701.2 421.3 1701.2 420.2 1700.7 419.2z" stroke="none" fill="#44D9E6" fill-rule="nonzero" />
        <path d="M1708.7 450.2L1713 449.1L1716.8 465.7L1712.5 466.8L1708.7 450.2" stroke="none" fill="#44D9E6" fill-rule="nonzero" />
        <path d="M1714.6 484L1712.5 466.8L1716.8 466.3L1718.9 483.4L1714.6 484" stroke="none" fill="#44D9E6" fill-rule="nonzero" />
        <path d="M1718.4 548.2C 1718.4 547.10004 1718.4 546.60004 1718.4 545.5L1718.4 545.5L1717.9 524L1722.2001 524L1722.7001 545.5C 1722.7001 546.6 1722.7001 547.6 1722.7001 548.2L1722.7001 548.2L1718.4 548.2zM1717.3 508.1L1716.2001 500.1L1720.5001 499.6L1721.6001 507.6L1717.3 508.1zM1399.6 943.2L1403.9 942.10004C 1405 941.60004 1406.6 941.60004 1408.7001 941.00006C 1411.9 940.50006 1416.2001 939.4001 1420.5001 937.80005C 1421.6001 937.30005 1422.1001 937.30005 1423.2001 936.7001L1423.2001 936.7001L1424.8 941.00006C 1423.7001 941.50006 1423.2001 941.50006 1422.1001 942.10004C 1417.3 943.7 1413.0001 944.80005 1409.8 945.30005C 1408.2001 945.80005 1406.6001 945.80005 1405.5 946.4L1405.5 946.4L1401.2 947.5L1399.6 943.2zM1438.6 932C 1441.2999 930.9 1443.4 930.4 1446.1 929.3L1446.1 929.3L1447.7 933.6C 1445 934.69995 1442.2999 935.19995 1440.2 936.3L1440.2 936.3L1438.6 932zM1461.2 923.4C 1466.6 921.30005 1471.8999 918.60004 1476.7999 916.4C 1481.1 914.30005 1485.8999 912.10004 1490.7 910L1490.7 910L1492.7999 913.8C 1487.9999 915.89996 1483.7 918.6 1478.8999 920.2C 1474.0999 922.9 1468.7 925 1462.7999 927.2L1462.7999 927.2L1461.2 923.4zM1501.3 904.1C 1508.3 900.3 1515.2001 896.1 1522.2001 891.8L1522.2001 891.8L1524.3 895.6C 1517.3 899.89996 1510.4 904.19995 1502.8 907.89996L1502.8 907.89996L1501.3 904.1zM1536.2 883.2C 1538.2999 881.60004 1540.5 880 1542.6 878.4L1542.6 878.4L1545.2999 882.2C 1543.2 883.8 1540.9999 885.4 1538.2999 887L1538.2999 887L1536.2 883.2zM1556 868.7C 1564.6 862.3 1573.2 855.3 1581.2 848.3L1581.2 848.3L1583.8999 851.5C 1575.8999 858.5 1567.2999 865.4 1558.7 872.4L1558.7 872.4L1556 868.7zM1589.8 840.3C 1595.7001 834.89996 1601.6001 829 1607 823.1L1607 823.1L1610.2 825.8C 1604.7999 831.7 1598.8999 837.6 1593 843L1593 843L1589.8 840.3zM1617.6 810.8C 1619.2 809.2 1620.7999 807 1622.4 805.39996L1622.4 805.39996L1622.9 804.89996L1626.1 807.6L1625.6 808.1C 1624 810.19995 1622.4 811.89996 1620.7999 814L1620.7999 814L1617.6 810.8zM1632.7 791.5C 1639.7 782.4 1646.1 774.3 1651.5 765.2L1651.5 765.2L1655.3 767.3C 1649.9 776.39996 1643.5 785 1636.5 794.1L1636.5 794.1L1632.7 791.5zM1657.9 755L1664.9 744.3L1669.7001 734.1L1673.5001 736.19995L1667.1001 748.49994L1661.7001 757.5999L1657.9 755zM1677.2 719.7C 1678.2999 717.60004 1679.8999 714.9 1681 712.7L1681 712.7L1684.8 714.3C 1683.7001 717 1682.7001 719.1 1681 721.8L1681 721.8L1677.2 719.7zM1687.4 697.2C 1688.5 694.5 1689.5 691.8 1690.6 689.2C 1691.7 686.5 1692.7 683.3 1693.7999 680.60004L1693.7999 680.60004L1697.6 670.4C 1698.1 669.30005 1698.7 667.7 1698.7 666.10004L1698.7 666.10004L1703 667.2C 1702.5 668.8 1701.9 669.9 1701.9 671.5L1701.9 671.5L1698.1 681.7C 1697 684.4 1696 687.10004 1694.9 690.3C 1693.8 693 1692.8 695.7 1691.7001 698.3L1691.7001 698.3L1687.4 697.2zM1701.8 655.4L1705.6001 642.5C 1706.7001 639.3 1707.7001 636.1 1708.3 631.8L1708.3 631.8L1712.6001 632.89996C 1711.5001 636.69995 1711.0001 640.39996 1709.9001 643.6L1709.9001 643.6L1706.1001 656.5L1701.8 655.4zM1711.4 616.3C 1711.9 613.6 1712.5 611.5 1712.5 609.3L1712.5 609.3L1712.5 608.2L1716.8 608.7L1716.8 609.8C 1716.3 611.89996 1715.7001 614.6 1715.7001 616.8L1715.7001 616.8L1711.4 616.3zM1715.2 592.1C 1715.7 588.3 1715.7 585.69995 1716.2999 583L1716.2999 583L1717.8999 559.9L1722.2 560.4L1720.6 583.5C 1720.6 586.2 1720.1 589.4 1719.5 593.2L1719.5 593.2L1715.2 592.1z" stroke="none" fill="#44D9E6" fill-rule="nonzero" />
        <path d="M1375.4 948.5L1392.1 944.8L1393.1 949.1L1376.5 952.8L1375.4 948.5" stroke="none" fill="#44D9E6" fill-rule="nonzero" />
        <path d="M808.5 639.8L813.3 638.7L817.6 656.9L812.8 658L808.5 639.8zM817 676.8L821.8 675.7L821.8 676.8L827.7 693.39996L823.4 694.99994L817 676.8zM828.8 713.3L833.1 711.7L835.8 719.7C 836.89996 722.4 837.89996 725.60004 839.6 729.4L839.6 729.4L835.3 731.5C 833.7 727.2 832.1 724.5 831.5 721.3L831.5 721.3L828.8 713.3zM843.3 748.1L847.6 746L855.6 763.2L851.3 765.3L843.3 748.1zM860.4 782.4L864.7 780.30005L874.4 796.4L870.10004 799.10004L860.4 782.4zM879.8 815.1L883.6 812.39996C 885.19995 814.49994 886.3 816.69995 887.89996 818.8C 888.99994 820.39996 889.99994 822 891.1 823.6L891.1 823.6L894.3 827.89996L890.5 830.6L887.3 826.3C 886.2 824.7 885.2 823.1 884.1 821.5C 882.4 819.4 880.8 817.3 879.8 815.1zM901.8 846.2L905.6 843.5L911.5 851.5C 913.1 853.6 915.3 856.3 917.4 858.5L917.4 858.5L913.60004 861.7C 911.50006 859.60004 909.80005 856.9 907.7 854.7L907.7 854.7L901.8 846.2zM926.3 875.7L930.1 872.5C 934.39996 877.3 938.69995 881.6 943 886.4L943 886.4L939.8 889.60004C 934.9 884.8 930.6 880 926.3 875.7zM952.6 903L955.8 899.8C 960.1 904.1 964.89996 908.39996 969.7 912.7L969.7 912.7L966.5 916.5C 961.7 911.6 957.4 907.3 952.6 903zM981.1 928.2L984.3 924.4C 989.1 928.7 994 932.4 998.8 936.2L998.8 936.2L996.1 940C 990.7 936.2 985.9 932.4 981.1 928.2zM1011 951.7L1013.7 947.9L1016.4 949.5C 1020.7 952.2 1025 955.4 1029.8 958.1L1029.8 958.1L1027.1001 961.89996C 1022.8001 959.19995 1018.0001 955.99994 1013.7001 953.3L1013.7001 953.3L1011 951.7zM1043.2 972.1L1045.2999 967.8C 1050.7 971 1055.9999 974.2 1061.8999 976.89996L1061.8999 976.89996L1059.7999 981.19995C 1053.9 978.6 1048.6 975.4 1043.2 972.1zM1076.5 990.4L1078.6 986.10004C 1084.5 988.80005 1089.9 991.50006 1095.7999 994.10004L1095.7999 994.10004L1093.7 998.4C 1087.7 996.3 1082.4 993.6 1076.5 990.4zM1111.2 1006.5L1112.7999 1002.2C 1118.7 1004.9 1124.6 1007 1130.4999 1009.2L1130.4999 1009.2L1128.8999 1013.5C 1123 1011.3 1117.1 1009.2 1111.2 1006.5zM1146.6 1019.9L1147.7 1015.60004L1165.8999 1021.00006L1164.7999 1025.3L1146.6 1019.9zM1183.1 1030.1L1184.2 1025.2999C 1186.8999 1026.3999 1190.1 1026.8999 1192.7999 1027.3999L1192.7999 1027.3999L1202.4999 1028.9999L1201.3999 1033.7999L1191.7 1032.2C 1189.6 1031.6 1186.3 1031.1 1183.1 1030.1zM1220.6 1037.5L1221.7 1032.7L1239.8999 1035.8999L1239.3999 1040.7L1236.2 1040.2L1220.6 1037.5zM1258.7 1042.3L1259.2 1037.5L1268.2999 1038C 1271.4999 1038 1274.7 1038.5 1277.9999 1038.5L1277.9999 1038.5L1277.4999 1043.3C 1274.2999 1042.8 1271.0999 1042.8 1267.7999 1042.8L1267.7999 1042.8L1258.7 1042.3zM1296.8 1044.5L1296.8 1039.7L1315.6001 1039.2L1315.6001 1044L1296.8 1044.5zM1334.1 1043.4L1334.1 1038.6L1338.9 1038.6L1352.3 1037L1352.8 1041.8L1338.9 1043.4L1334.1 1043.4zM1372.2 1039.6L1371.7 1034.7999L1390.5 1032.7L1391 1037.5L1372.2 1039.6zM805.3 627.6L803.2 608.8L808 608.3L810.1 627.1L805.3 627.6zM800.5 589.5L798.9 575.6L798.9 570.19995L803.7 570.19995L803.7 574.99994L805.3 588.39996L800.5 589.5zM798.3 551.4L797.8 532.60004L802.6 532.60004L803.1 551.4L798.3 551.4zM798.8 513.5C 799.3 510.3 799.3 507.1 799.3 503.8L799.3 503.8L799.8 494.69998L804.6 495.19998L804.1 504.3C 804.1 507.5 803.6 510.69998 803.6 514L803.6 514L798.8 513.5zM801.5 475.9L802 472.69998L804.7 457.09998L809.5 458.19998L806.3 476.4L801.5 475.9zM808 438.5L810.1 428.8C 810.6 425.59998 811.69995 422.9 812.19995 419.69998L812.19995 419.69998L816.99994 420.8C 815.89996 423.5 815.39996 426.69998 814.89996 429.4L814.89996 429.4L813.3 439.1L808 438.5zM817.5 401.4L822.9 383.19998L827.7 384.3L822.3 402.5L817.5 401.4zM828.8 365C 830.89996 359.1 833.6 353.2 835.8 347.3L835.8 347.3L840.1 348.9C 837.39996 354.8 835.3 360.69998 833.1 366.6L833.1 366.6L828.8 365zM843.8 329.7C 846.5 323.80002 849.2 318.40002 851.8 312.5L851.8 312.5L856.1 314.6C 853.39996 320.5 850.69995 325.9 848.1 331.80002L848.1 331.80002L843.8 329.7zM861 295.9C 864.2 290.5 866.9 284.6 870.1 279.3L870.1 279.3L874.39996 282C 871.19995 287.4 867.99994 292.7 865.3 298.6L865.3 298.6L861 295.9zM880.3 263.1C 883 258.80002 886.2 254 888.89996 249.70001L888.89996 249.70001L890.49994 247.00002L894.2999 249.70001L892.69995 252.40001C 889.99994 256.7 886.7999 261 884.1 265.80002L884.1 265.80002L880.3 263.1zM902.3 232.1C 906.1 227.3 910.3 221.90001 914.1 217.1L914.1 217.1L917.89996 220.3C 913.6 225.1 909.89996 230 906.1 234.8L906.1 234.8L902.3 232.1zM926.9 202.6C 931.2 197.8 935.5 193.5 939.80005 188.70001L939.80005 188.70001L943.00006 191.90001C 938.7001 196.20001 934.4001 201.00002 930.10004 205.8L930.10004 205.8L926.9 202.6zM953.2 175.2C 958 170.9 962.3 166.59999 967.10004 162.3L967.10004 162.3L970.30005 166.1C 965.50006 170.40001 961.2001 174.70001 956.4 179L956.4 179L953.2 175.2zM981.1 149.5C 983.19995 147.4 985.89996 145.7 988.1 143.6L988.1 143.6L996.1 137.70001L998.8 141.50002L990.8 147.40001C 988.7 149.00002 986 151.20001 983.8 153.3L983.8 153.3L981.1 149.5zM1011.5 127.1L1015.8 123.9C 1017.39996 122.8 1019 121.8 1020.6 120.700005C 1022.69995 119.100006 1024.9 117.50001 1027 116.4L1027 116.4L1029.7 120.200005C 1027.6 121.8 1025.3999 122.9 1023.7999 124.50001C 1022.19995 125.600006 1020.5999 126.600006 1018.99994 127.700005L1018.99994 127.700005L1014.69995 130.90001L1011.5 127.1zM1043.7 106.1L1044.7999 108.2L1043.7 106.1L1059.7999 96.4L1061.8999 100.700005L1045.7999 110.4L1043.7 106.1zM1077 87.4L1094.2 79.4L1096.2999 83.700005L1079.1 91.700005L1077 87.4zM1111.2 71.8C 1115.5 70.200005 1118.2 68.600006 1121.3999 68L1121.3999 68L1129.3999 65.3L1130.9999 69.600006L1122.9999 72.3C 1120.2999 73.4 1117.0999 74.4 1113.2999 76.100006L1113.2999 76.100006L1111.2 71.8zM1147.2 58.9L1165.3999 53L1166.4999 57.8L1165.3999 57.8L1148.7999 63.7L1147.2 58.9zM1184.2 48.7L1202.3999 44.4L1203.4999 49.2L1185.2999 53.600002L1184.2 48.7zM1215.7 46.1L1215.2 41.3L1234 39.2L1234.5 44L1215.7 46.1zM1253.3 41.3L1252.8 36.5L1266.7001 34.9L1272.1001 34.9L1272.1001 39.7L1267.3 39.7L1253.3 41.3zM1290.9 39.2L1290.9 34.4L1309.7001 33.9L1309.7001 38.7L1290.9 39.2zM1328.2 39.7L1328.7 34.9C 1331.8999 35.4 1335.1 35.4 1338.3999 35.4L1338.3999 35.4L1347.4999 35.9L1346.9999 40.7L1337.8999 40.2C 1334.7 40.2 1331.4 39.7 1328.2 39.7zM1366.3 42.4L1366.8 37.600002L1370 38.100002L1385.6 40.800003L1384.5 45.600002L1366.3 42.4zM1403.2 48.7L1404.2999 43.9L1413.9999 45.5C 1417.1998 46 1419.8999 47.1 1423.0999 47.6L1423.0999 47.6L1421.9999 52.399998C 1419.2999 51.3 1416.0999 50.8 1413.3999 50.3L1413.3999 50.3L1403.2 48.7zM1439.7 57.8L1440.7999 53L1458.9999 58.4L1457.8999 62.7L1439.7 57.8zM1475.7 69.6L1477.2999 65.299995C 1483.2 67.399994 1489.1 70.1 1494.9999 72.299995L1494.9999 72.299995L1493.3999 76.6C 1487.5 73.9 1481.6 71.8 1475.7 69.6zM1510.4 84.1L1512.5 79.799995C 1518.4 82.49999 1523.8 85.2 1529.7 87.799995L1529.7 87.799995L1527.6 92.1C 1521.7 89.5 1516.3 86.8 1510.4 84.1zM1544.2 101.3L1546.2999 97C 1551.7 100.2 1557.6 102.9 1562.8999 106.1L1562.8999 106.1L1560.7999 110.4C 1555.5 107.2 1550.1 104 1544.2 101.3zM1577 120.1L1579.7 116.299995C 1584 118.99999 1588.7999 122.2 1593.1 124.899994L1593.1 124.899994L1595.7999 126.49999L1593.1 130.29999L1590.4 128.69998C 1585.5 126 1581.3 123.3 1577 120.1zM1607.4 142.1L1610.1 138.3C 1614.9 142.1 1620.2999 146.3 1625.1 150.1L1625.1 150.1L1621.9 153.90001C 1617.6 150 1612.3 145.8 1607.4 142.1zM1636.4 166.1L1639.6 162.3C 1644.4 166.6 1648.7 170.90001 1653.5 175.2L1653.5 175.2L1650.3 178.4C 1645.5 174.7 1641.2 170.4 1636.4 166.1zM1663.8 192.4L1667 189.2C 1671.3 194 1675.6 198.3 1679.9 203.09999L1679.9 203.09999L1676.1 206.29999C 1672.4 201.5 1668.1 197.2 1663.8 192.4zM1689 220.3L1692.8 217.1C 1694.9 219.20001 1696.6001 221.90001 1698.7001 224.1L1698.7001 224.1L1704.6001 232.1L1700.8 234.8L1694.9 226.8C 1693.3 225.1 1691.1 223 1689 220.3zM1711.4 250.8L1715.2001 248.1L1718.4 252.40001C 1719.5 254.00002 1720.5 255.6 1721.6 257.2C 1723.2 259.30002 1724.7999 261.5 1725.9 263.6L1725.9 263.6L1722.1 266.30002C 1720.5 264.2 1719.4 262.00003 1717.7999 259.90002C 1716.7 258.30002 1715.7 256.7 1714.6 255.10002L1714.6 255.10002L1711.4 250.8zM1732.3 282.4L1736.6001 279.69998L1746.3 295.8L1742 297.9L1732.3 282.4zM1750.6 315.2L1754.9 313.1L1762.9 330.30002L1758.6 332.40002L1750.6 315.2zM1766.7 349.4L1771 347.3C 1772.6 351.59998 1774.2 354.3 1774.8 357.5L1774.8 357.5L1777.5 365.5L1773.2 367.1L1770.5 359.1C 1769.4 356.4 1768.3 353.2 1766.7 349.4zM1779 384.8L1783.3 383.19998L1789.2001 401.4L1784.4 402.5L1784.4 401.4L1779 384.8zM1789.2 421.3L1794 420.19998L1798.3 438.4L1793.5 439.5L1789.2 421.3zM1402.7 1029.5L1420.8999 1025.2L1421.9999 1030L1403.7999 1034.3L1402.7 1029.5zM1439.7 1021L1440.7999 1020.5L1457.3999 1014.6L1458.9999 1018.89996L1440.7999 1024.7999L1439.7 1021zM1475.7 1009.2L1483.7 1006.5C 1486.3999 1005.4 1489.6 1004.4 1493.3999 1002.7L1493.3999 1002.7L1495.4999 1007C 1491.1998 1008.6 1488.4999 1010.2 1485.2999 1010.8L1485.2999 1010.8L1477.2999 1013.5L1475.7 1009.2zM1509.9 994.7L1527.1 986.7L1529.2 991L1512 999L1509.9 994.7zM1543.7 978L1559.7999 968.3L1562.4999 972.6L1561.3999 970.5L1562.4999 972.6L1546.3999 982.3L1543.7 978zM1576.4 958.7C 1578.5 957.10004 1580.7001 956 1582.8 954.4C 1584.4 953.30005 1586 952.30005 1587.6001 951.2L1587.6001 951.2L1591.9001 948L1594.6001 951.8L1590.3 955C 1588.7001 956.1 1587.1001 957.1 1585.5 958.2C 1583.4 959.8 1581.2 961.4 1579.1 962.5L1579.1 962.5L1576.4 958.7zM1606.9 936.7L1614.9 930.8C 1617 929.2 1619.7001 927 1621.9 924.89996L1621.9 924.89996L1625.1 928.69995C 1623 930.7999 1620.2999 932.49994 1618.1 934.6L1618.1 934.6L1610.1 940.5L1606.9 936.7zM1636.4 912.7C 1641.2001 908.4 1645.5 904.10004 1650.3 899.8L1650.3 899.8L1653.5 903C 1648.7 907.3 1644.4 911.6 1639.6 915.9L1639.6 915.9L1636.4 912.7zM1663.2 886.4C 1667.5 882.10004 1671.7999 877.30005 1676.1 872.5L1676.1 872.5L1679.9 875.7C 1675.6 880.5 1671.3 885.4 1667 889.60004L1667 889.60004L1663.2 886.4zM1688.5 858.5C 1692.8 853.7 1696.5 848.8 1700.3 844L1700.3 844L1704.1001 846.7C 1700.3 851.5 1696.1001 856.9 1692.3 861.7L1692.3 861.7L1688.5 858.5zM1712 828.5L1713.6 825.8C 1716.2999 821.5 1719.5 817.2 1722.2 812.39996L1722.2 812.39996L1726 815.1C 1723.3 819.39996 1720.1 824.19995 1717.4 828.5L1717.4 828.5L1715.8 831.2L1712 828.5zM1731.8 796.9C 1735 791.5 1738.2001 786.2 1740.9 780.30005L1740.9 780.30005L1745.2001 782.4C 1742.0001 787.80005 1739.3 793.7 1736.1001 799L1736.1001 799L1731.8 796.9zM1750.1 763.6C 1752.7999 757.69995 1755.5 752.3 1758.1 746.39996L1758.1 746.39996L1762.4 748.49994C 1759.7001 754.39996 1757 759.7999 1754.4 765.69995L1754.4 765.69995L1750.1 763.6zM1766.1 729.4C 1768.7999 723.5 1770.9 717.60004 1773.1 711.7L1773.1 711.7L1777.4 713.3C 1775.3 719.2 1772.6 725.1 1770.4 731L1770.4 731L1766.1 729.4zM1779 694.5L1784.4 676.3L1789.2001 677.39996L1783.8 695.6L1779 694.5zM1789.8 658C 1790.9 655.3 1791.4 652.1 1791.9 649.4L1791.9 649.4L1793.5 639.7L1798.3 640.8L1796.7001 650.5C 1796.2001 653.7 1795.1001 656.4 1794.6001 659.6L1794.6001 659.6L1789.8 658zM1796.6 621.1L1799.7999 602.89996L1804.6 603.39996L1804.1 606.6L1801.4 622.19995L1796.6 621.1zM1801.5 583.6L1802 574.5C 1802 571.3 1802.5 568.1 1802.5 564.8L1802.5 564.8L1807.3 565.3C 1806.8 568.5 1806.8 571.7 1806.8 575L1806.8 575L1806.3 584.1L1801.5 583.6zM1803.6 546L1803.1 527.2L1807.9 527.2L1808.4 546L1803.6 546zM1802.5 508.1L1802.5 503.30002L1800.9 489.90002L1805.7001 489.40002L1807.3 503.30002L1807.3 508.7L1802.5 508.1zM1798.8 470.6L1796.7001 451.80002L1801.5001 451.30002L1803.6001 470.1L1798.8 470.6zM1027.1 1001.1C 1027.1 1000 1027.1 999.5 1027.6 998.39996C 1028.1 997.89996 1028.7 997.3 1029.7 996.8C 1030.7999 996.8 1031.7999 996.8 1032.3999 997.3L1032.3999 997.3L1035.5999 999.39996C 1036.0999 999.89996 1036.6998 999.89996 1037.1998 1000.49994C 1038.2998 1000.99994 1039.2998 1001.5999 1040.3998 1002.5999C 1041.9998 1003.6999 1042.4998 1005.7999 1041.4998 1007.3999C 1040.3998 1008.9999 1038.2998 1009.4999 1036.6997 1008.4999C 1035.0997 1007.3999 1033.9998 1006.8999 1032.8997 1006.3999C 1032.3997 1005.8999 1031.7997 1005.8999 1031.2997 1005.2999L1031.2997 1005.2999L1028.0997 1003.19995C 1027.6 1003.3 1027.1 1002.2 1027.1 1001.1zM1102.7 1038C 1102.7 1037.5 1102.7 1036.9 1102.7 1035.9C 1103.2 1034.8 1103.7999 1034.3 1104.2999 1033.8C 1105.3999 1033.3 1105.8999 1033.3 1106.9999 1033.8C 1108.5999 1034.3 1109.6998 1036.5 1109.0999 1038.6001C 1108.5999 1040.2001 1106.3999 1041.3 1104.7998 1040.7001C 1103.8 1040.2 1103.3 1039.1 1102.7 1038zM1189.6 1064.9C 1189.6 1064.4 1189.6 1063.8 1189.6 1063.8C 1189.6 1062.7001 1190.1 1062.2001 1191.2 1061.7001C 1191.7 1061.2001 1192.7999 1061.2001 1193.8999 1061.2001C 1194.9999 1061.2001 1195.9999 1061.7001 1197.0999 1061.7001L1197.0999 1061.7001L1229.7998 1067.6001C 1234.5999 1068.7001 1239.4998 1069.2001 1244.7998 1069.2001L1244.7998 1069.2001L1245.2998 1069.2001C 1250.0999 1069.7001 1255.4998 1070.3 1260.2998 1070.3L1260.2998 1070.3L1261.3998 1070.3C 1265.1998 1070.8 1268.8998 1070.8 1272.6998 1071.4C 1279.0999 1071.9 1284.9999 1072.5 1290.8998 1072.5C 1297.2998 1072.5 1303.7998 1072 1309.6998 1072L1309.6998 1072L1319.3998 1071.5C 1327.3998 1071.5 1334.3998 1071 1340.8998 1071C 1345.1998 1070.5 1348.8998 1069.9 1352.1998 1069.4C 1354.2998 1069.4 1355.9999 1068.9 1358.0999 1068.9C 1367.7998 1067.8 1373.0999 1067.3 1373.0999 1067.3C 1375.1998 1067.3 1376.8999 1068.4 1376.8999 1070C 1376.8999 1072.1 1375.7999 1073.8 1373.7 1073.8C 1373.7 1073.8 1367.7999 1074.3 1358.7 1075.9C 1357.1 1075.9 1354.8999 1076.4 1353.2999 1076.4C 1349.4999 1076.9 1345.7999 1077.5 1340.9999 1078C 1336.1998 1078 1331.2999 1078 1325.9999 1078.5L1325.9999 1078.5L1291.0999 1079.6C 1284.6998 1079.6 1278.1998 1079.1 1271.7998 1078.5C 1267.9998 1078.5 1264.7998 1078 1261.0999 1078C 1258.3999 1078 1255.1998 1077.5 1252.4999 1077.5L1252.4999 1077.5L1244.4999 1077C 1239.0999 1076.5 1233.7999 1076.5 1228.3999 1074.9C 1220.3999 1073.3 1212.7999 1072.2001 1204.7999 1070.6L1204.7999 1070.6L1195.7 1069C 1194.6 1069 1193.6 1068.5 1192.5 1068.5C 1191.2 1067.5 1190.1 1065.9 1189.6 1064.9zM772 633.5C 763.4 586.3 761.8 538.1 766.1 490.4C 766.1 489.3 766.6 488.8 767.19995 488.3C 767.69995 487.8 768.7999 487.19998 769.89996 487.19998C 771.49994 487.19998 773.1 489.3 773.1 490.99997C 768.8 538.19995 771 585.3 779 632L779 632L779 632.5C 781.1 643.8 783.3 654.5 786 665.8L786 665.8L786 666.3C 786.5 667.39996 786.5 668.39996 786.5 669.5C 787 671.6 786 673.3 783.8 673.8C 782.7 673.8 782.2 673.8 781.1 673.3C 780.6 672.8 779.5 672.2 779.5 671.2C 779 670.10004 779 668.5 778.4 667.4C 776.8 656.4 774.2 645.2 772 633.5zM784.9 687.5C 784.4 685.9 786 683.7 787.60004 683.2C 789.2 682.7 791.4 683.7 791.9 685.9C 792.4 687.5 791.4 689.7 789.2 690.2C 787.6 690.8 785.4 689.7 784.9 687.5zM810.1 757.2C 809.6 755.60004 810.6 754 812.19995 753.4C 813.2999 752.9 813.7999 752.9 814.89996 753.4C 815.99994 753.9 816.49994 754.5 816.99994 755C 817.49994 756.6 816.99994 758.8 815.39996 759.8C 813.8 760.3 811.6 759.8 810.6 758.2C 810.1 757.7 810.1 757.2 810.1 757.2zM853.5 836.5C 853.5 834.9 854 833.8 855.1 832.7C 855.6 832.2 856.69995 832.2 857.8 832.2C 858.89996 832.2 859.39996 832.7 859.89996 833.8C 861.49994 836.5 863.1 838.6 864.69995 840.8C 894.19995 885.3 926.7999 915.8 950.99994 938.3L950.99994 938.3L955.2999 942.6C 963.8999 949.6 970.8999 954.89996 977.2999 959.8C 979.3999 961.39996 981.5999 963 983.19995 964.6C 984.7999 965.69995 984.7999 967.8 983.69995 969.39996C 982.6 970.99994 980.49994 970.99994 978.89996 969.89996C 977.3 968.3 975.1 967.19995 972.99994 965.6C 967.0999 960.8 959.0999 954.89996 950.49994 947.89996C 948.89996 946.3 947.2999 944.69995 945.69995 943.6C 921.6 921.1 888.39996 890 858.89996 845C 857.3 842.9 855.69995 840.2 854.1 838C 854 837.6 853.5 837 853.5 836.5zM781.7 402C 781.7 401.5 781.7 400.9 781.7 400.4C 781.7 399.3 782.8 398.8 783.3 398.3C 784.39996 397.8 784.89996 397.8 786 397.8C 787.6 398.3 789.2 400.5 788.7 402.09998C 788.7 403.19998 787.60004 403.69998 787.10004 404.19998C 786.00006 404.69998 785.50006 404.69998 784.4 404.69998C 783.3 404.1 782.2 403.1 781.7 402zM805.8 331.8C 805.8 331.3 805.8 330.19998 805.8 329.69998C 806.89996 328.09998 809 326.99997 811.2 327.59998C 812.8 328.09998 813.9 330.3 813.3 332.39996C 812.8 333.99997 810.6 335.09998 808.5 334.49997C 806.9 333.9 806.4 332.9 805.8 331.8zM812.7 316.8C 812.7 316.3 812.7 315.19998 812.7 314.69998C 825 287.9 839 262.8 855.10004 239.19998C 872.80005 212.89998 892.7 187.79999 915.10004 164.69998C 915.60004 164.19998 916.7 163.59998 917.80005 163.59998C 918.9 163.59998 919.9 164.09998 920.50006 164.69998C 922.10004 165.79999 922.10004 168.49998 920.50006 169.49998C 898.50006 192.59999 878.10004 217.19998 861.00006 242.9C 845.4001 266 831.00006 291.19998 819.2001 317.9C 818.7001 319 818.1001 319.5 817.1001 319.5C 816.0001 320 815.5001 320 814.4001 319.5C 813.8 318.4 812.7 317.9 812.7 316.8zM990.7 978C 990.7 976.9 990.7 975.9 991.2 975.3C 992.3 973.7 994.4 973.7 996 974.8C 997.6 975.89996 997.6 978 996.5 979.6C 995.4 981.19995 993.3 981.19995 991.7 980.1C 991.2 979.6 990.7 979.1 990.7 978zM983.2 107.7C 983.2 106.6 983.7 105 984.8 104.5C 986.39996 103.4 988.6 104 989.6 105C 990.69995 106.6 990.1 108.8 989.1 109.8C 987.5 110.9 985.3 110.3 984.3 109.3C 983.2 108.8 983.2 108.3 983.2 107.7zM1045.9 68C 1045.9 66.4 1046.4 64.8 1047.5 64.2C 1048.6 63.699997 1049.1 63.699997 1050.2 63.699997C 1051.2999 63.699997 1051.7999 64.799995 1052.2999 65.299995C 1053.3999 66.899994 1052.7999 69.1 1050.7 70.1C 1049.6 70.6 1049.1 70.6 1048 70.1C 1046.9 69.6 1046.4 69 1045.9 68.5C 1045.9 68.6 1045.9 68 1045.9 68zM1060.4 60C 1059.9 58.4 1060.9 56.8 1062.5 56.2C 1067.3 54.100002 1072.7 51.4 1077 49.2L1077 49.2L1087.2 44.4C 1088.2999 43.9 1089.8999 43.300003 1091 42.800003C 1098.5 39.600002 1105.5 35.800003 1113 33.700005L1113 33.700005L1149.4 21.400005C 1154.2001 19.800005 1157.4 18.700005 1159.6 18.700005L1159.6 18.700005L1161.2 18.200005C 1162.2999 18.200005 1162.7999 17.700005 1163.2999 17.700005C 1164.3999 17.700005 1164.8999 17.700005 1165.9999 18.200005C 1166.4999 18.700005 1167.5999 19.300005 1167.5999 20.300005C 1168.0999 22.400005 1167.0999 24.100004 1164.8999 24.600006C 1164.8999 24.600006 1163.7999 25.100006 1161.0999 25.700006C 1158.9999 26.200006 1155.6998 26.800007 1151.9999 28.400007C 1144.9999 30.500008 1135.3999 33.800007 1123.5999 38.100006L1123.5999 38.100006L1115.5999 40.800007C 1109.1998 42.400005 1101.6998 46.20001 1094.0999 49.40001L1094.0999 49.40001L1084.9999 53.70001C 1078.5999 56.40001 1072.0999 59.60001 1065.0999 62.80001C 1063.4999 63.90001 1061.2998 62.80001 1060.2998 61.200012C 1060.4 60.5 1060.4 60.5 1060.4 60zM1229.2 9.1C 1228.7 7.0000005 1230.2999 5.3 1232.3999 4.8C 1232.3999 4.8 1232.8999 4.8 1233.9999 4.8L1233.9999 4.8L1247.8999 3.2000003C 1249.4999 3.2000003 1251.7 2.7000003 1253.2999 2.7000003C 1257.1 2.2000003 1260.7999 1.6000003 1265.6 1.1000003C 1272.6 1.1000003 1280.1 0.60000026 1288.7 0.60000026C 1293 0.60000026 1297.7999 0.60000026 1302.6 0.10000026L1302.6 0.10000026L1315.5 -0.39999974C 1321.9 -0.39999974 1328.4 0.10000026 1335.4 0.7000003C 1339.2001 0.7000003 1342.4 1.2000003 1346.1 1.2000003C 1351.5 1.7000003 1356.7999 2.3000002 1362.2 2.3000002L1362.2 2.3000002L1362.7 2.3000002C 1368.1 2.8000002 1373.3999 2.8000002 1378.7999 4.4L1378.7999 4.4L1411.4999 10.3C 1412.5999 10.3 1413.5999 10.8 1414.6998 10.8C 1416.2998 10.8 1417.8998 12.9 1417.3998 15.1C 1416.8998 17.300001 1415.2998 18.300001 1413.0997 17.800001C 1411.9998 17.800001 1410.9998 17.300001 1409.8998 17.300001L1409.8998 17.300001L1408.2998 17.300001C 1398.0999 15.700001 1387.3998 13.500001 1377.1998 11.900002C 1372.3998 10.800001 1366.9999 10.300001 1361.5999 9.800001L1361.5999 9.800001L1361.0999 9.800001C 1358.3999 9.800001 1355.1998 9.300001 1352.4999 9.300001L1352.4999 9.300001L1344.9999 8.800001C 1341.1998 8.300001 1337.4999 8.300001 1333.6998 7.7000012C 1327.2998 7.2000012 1321.3998 6.6000013 1314.8998 6.6000013L1314.8998 6.6000013L1286.6 7C 1279.1 7 1271.6 7.5 1265.1 7.5C 1260.7999 8 1257.1 8.6 1253.2999 9.1C 1251.2 9.1 1249.4999 9.6 1247.8999 9.6C 1238.2 10.700001 1232.8999 11.700001 1232.8999 11.700001C 1231.3 12.3 1229.7 10.7 1229.2 9.1zM1496.6 41.8C 1496.6 41.3 1496.6 40.7 1496.6 40.2C 1497.1 39.100002 1497.7 38.600002 1498.2 38.100002C 1499.2999 37.600002 1499.7999 37.600002 1500.8999 38.100002C 1502.4999 38.600002 1503.5999 40.800003 1502.9999 42.9C 1502.4999 44 1501.8999 44.5 1501.3999 45C 1500.2999 45.5 1499.7999 45.5 1498.7 45C 1497.7 44 1496.6 42.9 1496.6 41.8zM1563.5 73.4C 1563.5 72.3 1563.5 71.8 1564 70.700005C 1565.1 69.100006 1567.2 68.600006 1568.8 69.600006C 1570.4 70.700005 1571.5 71.200005 1572.6001 71.700005C 1573.1001 72.200005 1573.7001 72.8 1574.2001 72.8L1574.2001 72.8L1577.4 74.9C 1579 76 1579.5 78.1 1578.5 79.700005C 1577.4 81.3 1575.3 81.8 1573.7 80.8L1573.7 80.8L1570.5 78.700005C 1570 78.200005 1569.4 78.200005 1568.9 77.600006C 1567.8 77.100006 1566.8 76.00001 1565.7001 75.50001C 1564.6001 75.00001 1564.1 74.5 1563.5 73.4zM1438.6 1057.3C 1438.1 1055.2001 1439.1 1053.5 1441.2999 1053C 1441.2999 1053 1442.3999 1052.5 1445.1 1051.9C 1446.7 1051.4 1449.9 1050.8 1454.2 1049.2001C 1462.7999 1046.5001 1475.1 1042.2001 1490.7 1036.9C 1497.1 1035.3 1504.1 1031.5 1511.6 1028.3C 1512.7 1027.8 1514.2999 1027.2001 1515.4 1026.7001C 1523.4 1022.9001 1531.5 1019.2001 1540.6 1015.4001C 1541.7 1014.9001 1542.2 1014.9001 1543.2999 1015.4001C 1544.3999 1015.9001 1544.8999 1016.50006 1545.3999 1017.00006C 1545.8999 1018.60004 1545.3999 1020.80005 1543.7999 1021.80005L1543.7999 1021.80005L1541.7 1022.9C 1533.7 1026.7001 1525.6 1030.4 1518.6 1033.6C 1517 1034.1 1515.9 1034.7 1514.2999 1035.7C 1506.7999 1038.8999 1499.7999 1042.7 1492.7999 1044.2999L1492.7999 1044.2999L1456.2999 1056.6C 1451.4999 1058.2 1448.2999 1059.2999 1446.1 1059.7999L1446.1 1059.7999L1444.5 1060.2999C 1443.4 1060.2999 1442.9 1060.7999 1442.9 1060.7999C 1441.3 1060.6 1439.2 1059.5 1438.6 1057.3zM1553.4 1011.8C 1553.4 1010.2 1553.9 1008.6 1555 1008C 1555.5 1007.5 1556.6 1007.5 1557.7 1007.5C 1558.7999 1008 1559.2999 1008.6 1559.7999 1009.1C 1560.8999 1010.69995 1560.2999 1012.89996 1558.2 1013.89996C 1556.6 1014.99994 1554.3999 1014.39996 1553.3999 1012.8C 1553.9 1012.9 1553.9 1012.4 1553.4 1011.8zM1616 972.1C 1616 971 1616.5 969.39996 1617.6 968.89996C 1618.1 968.39996 1619.2 968.39996 1620.2999 968.39996C 1621.3999 968.39996 1621.8999 968.89996 1622.3999 969.99994C 1623.4999 971.5999 1622.8999 973.7999 1621.8999 974.7999C 1621.3999 975.2999 1620.2999 975.2999 1619.2 975.2999C 1618.1 975.2999 1617.6 974.7999 1617.1 973.69995C 1616.6 973.2 1616 972.7 1616 972.1zM1684.7 912.7C 1684.7 911.60004 1684.7 910.60004 1685.7999 909.5C 1707.7999 886.4 1728.2 861.8 1745.2999 836.1C 1760.8999 813 1775.2999 787.8 1787.1 761.1C 1788.2 759.5 1789.7999 758.39996 1791.9 759.5C 1793.5 760.6 1794.6 762.7 1793.5 764.3C 1781.2 791.1 1767.2 816.2 1751.1 839.8C 1733.4 866.1 1713 891.2 1691.1 914.3C 1690 915.89996 1687.2999 915.89996 1686.2999 914.3C 1685.2 914.3 1684.7 913.2 1684.7 912.7zM1608.5 101.8C 1608.5 100.700005 1608.5 99.700005 1609 99.100006C 1609.5 98.600006 1610.6 98.00001 1611.1 97.50001C 1612.2 97.50001 1612.7 97.50001 1613.7999 98.00001C 1615.3999 99.100006 1615.3999 101.200005 1614.2999 102.80001C 1613.2 104.40001 1611.1 104.40001 1609.4999 103.30001C 1609 103.4 1608.5 102.4 1608.5 101.8zM1621.4 112C 1621.4 110.9 1621.4 109.9 1621.9 109.3C 1623 107.700005 1625.1 107.700005 1626.7001 108.8C 1628.8 110.4 1630.5001 112 1633.1001 113.600006C 1639.0001 118.40001 1646.5001 123.8 1655.1001 130.8C 1656.7001 132.40001 1658.3 133.5 1659.9001 135.1C 1684.0001 157.6 1717.2002 188.70001 1747.3002 233.70001C 1748.9001 235.80002 1750.5001 238.50002 1752.1002 240.70001C 1753.2002 242.30002 1752.6002 244.50002 1751.0002 245.50002C 1749.4003 246.60002 1747.2002 246.00002 1746.2002 244.40001C 1744.6002 241.70001 1743.0002 239.6 1741.4001 237.40001C 1711.9001 192.90001 1679.3002 162.40001 1655.1001 139.90001L1655.1001 139.90001L1650.8 135.6C 1642.2001 128.6 1634.7001 122.700005 1628.8 118.40001C 1626.7001 116.80001 1624.5 115.20001 1622.9 113.600006C 1621.9 113.6 1621.9 112.6 1621.4 112zM1793.5 748.1C 1793.5 747.6 1793.5 746.5 1793.5 746C 1794 744.4 1796.2 743.3 1798.3 743.9C 1799.9 744.4 1801 746.60004 1800.4 748.7C 1799.9 750.3 1797.7001 751.4 1795.6 750.8C 1794.5 750.2 1793.5 749.1 1793.5 748.1zM1817.6 677.9C 1817.6 677.4 1817.6 676.80005 1817.6 676.30005C 1818.1 675.2001 1818.7 674.7001 1819.2 674.2001C 1819.7 673.7001 1820.7999 673.7001 1821.8999 673.7001C 1823.4999 674.2001 1825.0999 676.4001 1824.5999 678.00006C 1824.5999 679.10004 1823.4999 679.60004 1822.9999 680.10004C 1822.4999 680.60004 1821.3999 680.60004 1820.2999 680.60004C 1818.6 680.6 1817.6 679.5 1817.6 677.9zM1833.1 588.4C 1833.1 587.9 1833.1 587.9 1833.1 587.30005C 1838.5 528.9 1834.2 469.90005 1819.7 412.10004C 1819.2 411.00003 1819.2 409.40002 1818.6 408.30005C 1818.1 406.20004 1819.1 404.50006 1821.2999 404.00006C 1822.8999 403.50006 1825.1 404.50006 1825.6 406.70007C 1825.6 407.20007 1826.1 408.30008 1826.1 408.80008C 1826.1 409.30008 1826.6 410.4001 1826.6 410.9001C 1841.1 468.70007 1845.4 529.4001 1840 588.30005C 1840 590.4 1837.9 591.50006 1836.2 591.50006C 1834.7 591.6 1833.6 590 1833.1 588.4zM1789.2 322.7C 1788.7 321.1 1789.7 319.5 1791.2999 318.90002C 1792.8999 318.40002 1795.1 318.90002 1796.1 320.50003C 1797.1 322.10004 1796.1 324.30002 1794.5 325.30002C 1792.9 325.80002 1790.7 325.30002 1789.7 323.7C 1789.8 323.2 1789.8 323.2 1789.2 322.7zM1814.9 392.3C 1814.4 390.69998 1815.4 388.5 1817.6 388C 1819.2 387.5 1821.4 388.5 1821.9 390.7C 1822.4 392.30002 1821.4 394.5 1819.2001 395C 1817 396.1 1815.4 395 1814.9 392.3C 1814.9 392.9 1814.9 392.9 1814.9 392.3z" stroke="none" fill="#44D9E6" fill-rule="nonzero" />
	</g>
</g>
</svg>